<svg width="1168.723" height="929.032" viewBox="0 0 309.225 245.806" xml:space="preserve" xmlns="http://www.w3.org/2000/svg"><path style="fill:#1f0f04;stroke:#1f0f04;stroke-opacity:1;fill-opacity:1;stroke-linejoin:round;stroke-linecap:round" d="M104.324 268.877a140.808 140.808 0 0 1-3.415-1.635l-1.489-.747.165.372c.216.489.11.776-.37 1.004-.481.229-1.076.32-2.781.423-1.834.112-2.559.247-2.84.527-.18.181-.194.233-.114.445.068.178.067.232-.002.21-.051-.017-.886-.274-1.854-.572-5.571-1.715-10.895-3.608-15.235-5.417-1.01-.422-1.845-.758-1.853-.747-.08.102-1.167 2.316-1.147 2.337.015.014 1.11.065 2.433.112 2.78.099 2.521.005 2.937 1.07.302.775.323 1.23.064 1.412-.499.349-1.577.039-4.61-1.327-6.265-2.82-8.676-3.631-10.877-3.657l-.798-.01c.02 0 .64-2.048.625-2.063-.03-.03-2.862-.893-4.477-1.365-3.182-.93-5.003-1.354-7.086-1.65-.81-.116-1.861-.306-2.335-.421-.932-.228-3.842-1.174-6.154-2l-1.44-.516-.767-1.195c-.422-.657-1.036-1.61-1.365-2.117-.33-.507-.565-.922-.524-.922.041 0 1.047.728 2.234 1.618 1.873 1.404 3.258 2.398 3.738 2.684.076.045.452.271.835.503 1.888 1.14 3.314 1.622 4.101 1.382.247-.075.569-.36.569-.506 0-.207-1.934-1.649-7.486-5.58-6.636-4.7-9.015-6.53-12.015-9.242-1.798-1.626-3.859-3.816-4.887-5.193-.169-.225-.32-.397-.335-.38-.059.058.69 2.533 1.532 5.058l.864 2.592-.4-.4c-.833-.832-1.813-1.334-4.599-2.354-.99-.363-2.07-.76-2.396-.881l-.594-.222-.017-.869-.018-.869-.026.84c-.015.462-.039.84-.053.84-.11 0-1.937-.854-2.907-1.358-1.78-.925-3.567-2.167-4.788-3.326-.402-.381-.41-.396-.139-.265.158.077 1.252.667 2.432 1.312 2.33 1.273 4.775 2.52 4.831 2.464.11-.11-.788-1.942-1.43-2.917-1.554-2.361-3.443-4.307-9.518-9.802-1.88-1.7-3.314-3.044-4.762-4.462-2.848-2.786-5.409-6.062-6.675-8.539-.249-.486-.44-.883-.423-.883.016 0 .432.445.925.99 1.715 1.894 2.94 2.78 3.836 2.777.605-.002.639-.043.457-.56-.5-1.418-1.722-3.04-4.171-5.53-1.248-1.27-3.945-3.792-4.61-4.311l-.222-.174-.229.434c-.214.406-.228.497-.226 1.417.002.92.022 1.04.312 1.884.68 1.984 2.097 4.39 4.606 7.825 1 1.37 3.21 4.36 3.311 4.48.27.324 1.495 2.056 1.923 2.721 1.003 1.559 1.44 2.512 1.44 3.147 0 .414-.148.653-.49.794-.247.103-.256.098-.997-.624-2.193-2.132-4.404-5.053-6.264-8.273-.99-1.713-2.65-5.113-4.255-8.718-2.215-4.974-3.518-7.395-4.87-9.05-.57-.698-.74-.856-.74-.687 0 .117.945 6.24 1.022 6.624.022.112-.215-.293-.527-.902-.48-.935-.571-1.176-.584-1.557-.013-.376-.023-.405-.066-.18-.047.254-.097.177-.77-1.188l-.72-1.458.543.594c.3.326.583.594.63.594.158 0 .011-1.23-.22-1.843-.4-1.057-.934-1.801-3.145-4.384-1.617-1.89-2.58-3.253-3.094-4.374-.147-.322-.24-.445-.278-.37-.032.063-.202.806-.378 1.65-.176.846-.339 1.537-.362 1.537-.076 0-2.782-4.765-3.967-6.985l-.47-.88h5.68l5.681.001.593.798c.326.438.86 1.09 1.188 1.448l.595.651.053-.487c.029-.268.056-.749.061-1.07.005-.32.033-.753.061-.962.05-.36.066-.38.308-.38.214 0 .286.057.452.349.77 1.36 3.225 5.045 5.104 7.664 3.377 4.705 6.849 9.07 13.781 17.323 1.92 2.285 3.491 4.171 3.491 4.19 0 .02-.172-.015-.382-.079-.834-.25-1.423-.03-1.537.577-.262 1.394 2.074 5.091 4.257 6.74.963.726 1.79 1.213 1.923 1.13.166-.102.07-.466-.384-1.449-.382-.826-.467-1.09-.472-1.459-.004-.43.005-.452.218-.476.313-.036 1.688.267 2.259.497 1.324.535 2.732 1.56 4.474 3.256 1.481 1.443 2.638 2.73 5.093 5.668 3.429 4.103 4.737 5.552 6.004 6.646 1.106.955 1.563 1.27 1.648 1.133.094-.153.57-.004 3.364 1.056 2.885 1.095 3.81 1.389 4.56 1.45.54.044.592.034.679-.129.074-.14.066-.235-.042-.462-.16-.338-.832-1.119-1.538-1.787l-.504-.478.655.346c1.97 1.04 4.856 2.924 8.276 5.403 1.126.816 2.554 1.842 3.173 2.278l1.125.794.021 3.77.022 3.768.022-3.707c.012-2.04.041-3.708.065-3.708.023 0 .42.252.88.56 2.577 1.726 4.89 2.863 7.022 3.45 1.401.385 2.363.516 3.876.528l1.375.011.333.614c1.03 1.897 2.444 3.592 3.993 4.785.522.401 1.516 1.032 1.627 1.032.035 0 .247-.705.47-1.565l.407-1.565.243.274a214 214 0 0 0 1.663 1.798l1.42 1.524.757.178c1.462.343 2.397.443 4.116.44 1.685-.004 2.561-.093 6.145-.626 4.106-.61 6.384-.476 8.916.527.82.324 1.434.629 1.079.534-1.12-.297-1.811-.4-2.705-.407-.901-.006-1.02.011-1.39.202-.233.12-.47.32-.558.47-.132.227-.14.301-.052.565.055.167.276.48.492.695.812.812 2.158 1.53 5.897 3.143 1.328.573 2.857 1.252 3.397 1.51 2.85 1.355 3.859 2.414 3.213 3.372-.103.152-.24.287-.307.299-.066.011-.986-.379-2.045-.867zm22.45.152-1.967-.082-.45-.018.454-.147c.646-.21 1.952-.467 2.881-.57 1.655-.18 3.074-.105 6.915.368 1.266.156 2.428.286 2.58.288.264.005.269.01.08.085-.254.102-8.457.161-10.493.076zm-4.63-.255c-3.092-.296-5.345-.743-6.341-1.259-.341-.176-.394-.128-.131.12.112.105.204.221.204.258 0 .074-1.63-.488-3.482-1.201-2.73-1.051-5.61-2.396-7.538-3.524-1.251-.731-1.441-.882-.67-.532.308.14 1.009.383 1.557.542 2.224.643 4.43.97 9.027 1.34 3.509.282 4.742.42 5.895.657 2.627.54 3.628 1.485 3.305 3.118l-.105.53-.491.01c-.27.006-.824-.02-1.23-.06zm8.399-3.197c-2.756-.136-5.224-.421-6.719-.777-1.16-.276-2.048-.691-2.048-.96 0-.137 2.064-.002 3.646.238 1.884.287 4.004.327 4.685.09.6-.21 1.041-.557 1.246-.98l.176-.364.626-.053c.922-.078 2.116-.064 2.356.027.43.164.22.399-1.25 1.396-.852.577-1.077.828-.916 1.022.175.212.663.287 1.926.297.88.007 1.136.029.901.078-.402.083-2.805.076-4.63-.014zm19.934-3.049-1.738-1.326 1.656-.1c3.064-.184 5.301-.508 7.814-1.13a52.755 52.755 0 0 0 1.639-.42c.116-.042.1 0-.067.183-.12.131-.401.552-.626.935-.786 1.338-1.651 1.924-3.745 2.532-.52.152-2.189.501-2.908.61-.269.04-.398-.042-2.025-1.284zm23.184.016c-.305-.088-.351-.297-.113-.512.144-.13.16-.128.274.048.378.582.366.616-.16.464zm-.348-1.072c-1.043-.929-2.25-1.087-4.875-.638-2.114.36-2.78.315-3.128-.216-.209-.32-.193-1.415.033-2.263.107-.4.137-.635.082-.635-.048 0-1.203.369-2.567.82-1.363.45-2.527.819-2.586.819-.166 0 .467-.403 1.044-.665.287-.13.836-.327 1.222-.439.785-.227 2.905-.649 2.964-.59.021.022.322-.05.668-.158a61.81 61.81 0 0 1 4.275-1.127c1.53-.34 3.688-.736 3.737-.686.07.07-3.208 1.4-5.744 2.33-.676.248-1.259.478-1.295.512-.036.034.13.15.369.258.395.178.542.196 1.622.194 1.353-.002 1.689-.07 4.562-.93.909-.272 1.955-.556 2.326-.63 1.213-.246 2.535-.048 2.535.38 0 .425-.886 1.216-2.925 2.61-.667.457-1.379.954-1.581 1.106l-.37.276zm-50.175-5.643a14.716 14.716 0 0 0-.963-1.18l-.485-.518.023-1.54.022-1.542.307-.063c.3-.063.339-.04 1.639.947.732.556 1.81 1.353 2.396 1.771a57.46 57.46 0 0 1 1.132.82c.036.032-.59-.065-1.393-.216-.803-.15-1.52-.275-1.594-.275-.111 0-.169.218-.324 1.229-.104.676-.21 1.229-.235 1.229-.025 0-.261-.298-.525-.662zm-13.89-.245a6.516 6.516 0 0 1-3.34-1.311c-.234-.175-.92-.791-1.526-1.37-.605-.579-1.263-1.18-1.46-1.336l-.36-.284-2.827.058c-2.895.059-3.699.144-4.147.437-.186.123-.2.112-.61-.47-.6-.848-.814-1.305-.814-1.727 0-.457.197-.716.714-.938l.393-.17 3.563.605c1.96.333 4.21.738 4.998.9 5.13 1.056 8.067 2.195 9.59 3.718.465.464.863 1.096.777 1.234-.024.04-.44.165-.924.279-1.537.36-2.884.486-4.026.375zm80.588-1.146c-.307-.241-.463-.855-.463-1.814v-.806l.266-.12c.146-.066 1.133-.486 2.192-.934a187.17 187.17 0 0 0 2.929-1.265c.552-.248 1.001-.408.998-.355-.003.052-.16.844-.35 1.758l-.346 1.662-.653.376c-.359.207-1.132.61-1.718.896-1.565.763-2.421.943-2.855.602zm-68.835-.896c-1.568-1.32-3.783-2.22-6.12-2.485l-.93-.106.476-.18c1.271-.482 2.264-.495 3.99-.053.946.243 1.392.313 2.191.345l1.004.04v1.465c0 .806-.009 1.462-.02 1.46a17.033 17.033 0 0 1-.591-.486zm63.415-.079c1.273-.63 2.63-1.116 3.318-1.189l.45-.048-.614.25c-.82.335-3.838 1.444-4.097 1.506-.112.026.312-.207.943-.519zm-88.797-.395c-.203-.232-.308-.485-.308-.737 0-.36.088-.376.305-.055.335.492.337 1.175.003.792zm93.465-.37a1.215 1.215 0 0 0-.427-.386l-.262-.124.448-.176.448-.176v.566c0 .311-.01.564-.02.563a1.85 1.85 0 0 1-.187-.267zm-54.403-.5 1.147-.601.983-.056c1.149-.065 3.774-.32 5.116-.498 1.174-.155 1.27-.146.497.046-1.462.362-8.42 1.719-8.79 1.714-.055-.001.416-.273 1.047-.604zm-48.096.143c-3.328-1.153-7-2.282-13.684-4.208-6.387-1.841-9.506-2.784-11.102-3.356l-.696-.25.749.044c.864.05 1.444.155 3.453.62 1.33.307 2.992.648 3.158.648.037 0-.81-.44-1.885-.98-3.22-1.616-5.622-3.078-11.129-6.77-2.028-1.36-4.34-2.91-5.139-3.444-.798-.535-1.452-.995-1.454-1.023-.006-.109 1.199-.152 1.907-.068 1.475.175 2.928.79 5.745 2.43 1.333.777 2.994 1.657 3.621 1.92.232.098.23.1-.204.15-.445.05-.748.27-.748.547 0 .207.33.772.662 1.132.307.333.351.353.916.406.87.082 2.488.421 3.401.713 1.015.323 2.657 1.048 3.914 1.728l2.131 1.155c2.596 1.408 4.669 2.112 6.566 2.23.398.024.88.06 1.07.08.192.02.349.01.349-.023s-.246-.187-.547-.342c-.491-.254-3.862-2.25-4.774-2.828l-.364-.23.183-.148c.297-.24.796-.267 1.528-.082.485.123 1.467.572 3.77 1.724 3.343 1.673 4.444 2.113 5.487 2.192.82.062 1.325-.112 1.762-.61.182-.205.373-.517.425-.692.053-.175.125-.308.16-.295.188.066 1.29 1.143 1.6 1.563.34.462.357.511.357 1.053 0 .489-.028.596-.195.763-.228.228-.705.474-1.754.904-1.494.613-1.585 1.128-.376 2.123.278.23.916.67 1.416.98 1.237.765 1.234.768-.28.244zm74.017-3.91c-.446-.19-1.407-.794-1.498-.943-.026-.041.18-.055.473-.031 1.34.107 2.795-.444 5.839-2.215 2.755-1.603 3.745-2.077 5.02-2.402l.77-.196 1.085.635 1.086.635-1.159.054c-1.842.087-3.237.431-4.68 1.155-.863.433-1.595.933-2.959 2.022-1.526 1.218-1.922 1.423-2.819 1.457-.59.022-.767-.004-1.158-.17zm29.774-.607-1.003-.023v-.391c0-.377.01-.394.307-.5.47-.165 2.276-1.078 3.011-1.52.36-.217 1.493-.944 2.516-1.616 3-1.969 3.97-2.402 5.249-2.346.762.033 1.2.205 1.772.695.293.25.365.28.452.184.056-.063.575-.843 1.153-1.734.577-.89 1.059-1.61 1.07-1.597.054.056-.35 3.268-.418 3.33-.042.04-.593.507-1.224 1.039-.631.532-1.589 1.357-2.128 1.833l-.98.866.386-.543c.507-.712.732-1.236.74-1.72.013-.864-.744-1.084-2.348-.68l-.524.13-1.008 2.24-1.008 2.239-.826.045c-1.102.06-3.942.099-5.189.07zm-3.994-.074c.751-.094 2.245-.445 2.796-.656.086-.033.113.048.113.334v.378l-1.578-.012c-.867-.007-1.466-.027-1.331-.044zm-98.515-.354c0-.112.02-.159.042-.102a.316.316 0 0 1 0 .205c-.023.056-.042.01-.042-.103zm82.292-1.889c-.157-.063-.157-.066.016-.072.42-.013 1.524-.45 2.4-.949 1.162-.66 3.747-1.943 4.958-2.458.496-.21 2.216-.93 3.823-1.6 3.695-1.54 5.016-2.131 6.706-3.002 1.543-.796 1.631-.847 2.745-1.566 2.128-1.375 3.696-2.896 4.625-4.486l.31-.53.046.283c.085.524.336.902 1.182 1.78.462.48.878.972.923 1.091.314.826-.31 1.745-2.057 3.033-.76.56-.84.599-1.042.514-.133-.055-.843-.093-1.82-.097-1.772-.007-1.97-.058-2.155-.548-.049-.13-.117-.237-.15-.237-.033 0-.349.267-.7.594-.703.651-.856.92-1.247 2.175-.128.413-.326.908-.439 1.1-.351.597-.508.691-1.327.797-1.87.24-3.688.728-7.702 2.065-4.564 1.519-6.292 1.979-7.822 2.082-.34.023-.728.055-.864.07a1.02 1.02 0 0 1-.41-.039zm-112.907-1.332a286.19 286.19 0 0 1-2.725-1.658l-.512-.323v-1.542l.182.156c.1.086.717.638 1.372 1.226.655.588 1.78 1.579 2.502 2.202 1.512 1.306 1.478 1.276 1.43 1.275-.02-.001-1.033-.602-2.25-1.336zm147.524-2.043c.502-.5 4.076-3.22 6.023-4.581 1.406-.984 1.589-1.093 1.186-.711-1.39 1.318-2.737 2.435-4.054 3.364-1.1.776-3.42 2.193-3.155 1.928zm-151.17-.179-2.619-1.724a202.93 202.93 0 0 1-3.974-2.687c-1.68-1.178-5.042-3.653-5.042-3.712 0-.036-.004-.038 2.663 1.03 2.16.865 3.51 1.377 4.648 1.765l.797.271 1.926 1.83 1.926 1.829.001.798c0 .44-.008.797-.02.794a5.323 5.323 0 0 1-.307-.194zm9.403-3.159c-.718-.151-2.311-.648-2.256-.703.1-.1 3.094.705 3.094.832 0 .047-.027.042-.838-.129zm150.39-3.387c2.91-3.223 4.741-6.079 8.338-13.001.644-1.24 1.221-2.326 1.282-2.415.099-.144.113-.098.125.41l.015.57.047-.738.047-.738.897-1.5c.494-.825.983-1.592 1.086-1.704.204-.22.192-.513-.028-.696-.161-.133-.778.012-1.434.337a6.488 6.488 0 0 1-.53.247c-.017 0-.032-.179-.032-.397 0-.372.034-.436.56-1.044 1.4-1.62 2.226-2.988 2.226-3.684 0-.394.08-.486.363-.415.238.06.35.345.422 1.069.074.75.287.993.798.912.188-.03.611-.19.94-.354.54-.27.657-.375 1.197-1.081 1.148-1.501 1.77-2.54 2.112-3.527.227-.656.287-.972.434-2.295.073-.653.225-1.578.338-2.056l.205-.868.876-.183c1.17-.245 3.294-.75 3.294-.784 0-.015-.1-.22-.223-.457-.77-1.485.054-3.504 2.96-7.247l1.056-1.361.815-.409c.448-.225.849-.397.89-.383.093.03-2.42 5.089-3.41 6.866-2.67 4.79-4.955 8.118-8.959 13.043-.173.213-.117.193.533-.19 3.204-1.884 6.246-4.656 8.744-7.966 2.048-2.714 3.608-5.29 6.855-11.32.826-1.531 1.577-2.906 1.671-3.053.248-.39 3.489-2.136 3.489-1.879 0 .014-.147.355-.326.758-.18.403-.37.929-.424 1.167-.086.382-.08.45.042.574.196.196 1.46.198 1.816.004.614-.337 1.016-1.005 1.197-1.991l.1-.536h1.706c.938 0 1.706.009 1.705.02 0 .011-.106.334-.235.717-.558 1.66-1.653 4.131-3.778 8.521-1.37 2.828-2.119 4.436-2.434 5.223-.175.436-.336.636-1.096 1.364-1.49 1.427-2.55 2.01-3.718 2.042-.318.009-.965-.015-1.438-.052l-.86-.068.025.682c.032.83-.174 1.7-.802 3.386-.91 2.448-1.086 3.055-1.13 3.915l-.04.8-1.052.705c-1.49.999-2.635 1.935-4.037 3.305-.983.96-2.497 2.585-3.054 3.279-1.32 1.642-3.17 3.727-4.365 4.918-1.33 1.326-2.76 2.547-3.346 2.856-.101.054-.184.144-.184.201 0 .104-1.918 2.025-2.458 2.462-.624.504-1.145.803-1.48.848-.229.031-.33.018-.296-.037.03-.047.936-.753 2.016-1.57 1.08-.817 1.986-1.523 2.015-1.569.028-.046-.288.122-.702.374-.817.495-2.213 1.208-2.969 1.516-.521.212-.578.309-.535.905.02.291-.01.39-.151.505-.293.238-.32.172-.132-.326.026-.07-.098-.053-.4.052-1.834.638-4.45 1.982-7.027 3.608l-.918.58zm11.693-18.603c-.02-.02-.106.062-.192.182l-.155.217.192-.182c.105-.1.175-.198.155-.217zm2.299-2.223c.153-.158.26-.287.237-.287-.023 0-.166.13-.32.287-.152.158-.259.287-.236.287.022 0 .166-.13.319-.287zm7.988-.696c.029-.046-.004-.06-.077-.032-.142.055-.168.113-.05.113.042 0 .1-.036.127-.08zm-6.882-.492c.081-.09.13-.164.107-.164-.022 0-.108.074-.19.164-.08.09-.129.164-.106.164.022 0 .107-.074.189-.164zm.789-.88c.102-.13.099-.134-.031-.032-.137.107-.18.175-.113.175.017 0 .082-.065.144-.144zm8.715-.267c-.028-.045-.005-.082.05-.082s.078-.022.051-.05c-.073-.073-.234.05-.18.137.027.042.067.077.089.077.023 0 .018-.037-.01-.082zm2.09-4.507c0-.045-.04-.082-.087-.082-.048 0-.064.037-.036.082.028.045.067.082.087.082.02 0 .036-.037.036-.082zm11.531-13.25c-.016-.26-.03-.068-.03.427 0 .496.013.71.03.475.016-.235.017-.64 0-.902zM43.38 233.1c-3.979-1.029-9.656-4.618-16.895-10.68a112.331 112.331 0 0 1-1.762-1.496c-.135-.125-.6-.533-1.033-.908-.433-.375-1.4-1.235-2.149-1.91-1.352-1.221-1.361-1.232-1.363-1.578-.001-.192.02-.348.045-.348.027 0 .826.553 1.777 1.23l1.73 1.228.098-.232c.128-.305.467-.565.885-.68.47-.127 1.744-.04 3.083.211 1.821.342 2.742.42 3.298.275.259-.067.47-.108.47-.09 0 .018-.05.132-.11.254-.297.59-.208 1.327.241 1.993.154.229.282.44.286.469.003.03.307.322.676.65 1.29 1.152 2.495 1.923 6.938 4.443 2.262 1.283 4.44 2.644 4.69 2.932.1.112.134.56.18 2.29l.057 2.151-.19-.004c-.104-.002-.533-.092-.952-.2zm-10.996-8.84c0-.017-.064-.081-.143-.143-.13-.102-.133-.099-.031.03.107.137.174.18.174.113zm-.677-1.575c-.028-.027-.098-.03-.158-.006-.065.026-.045.046.05.05.086.004.135-.016.108-.043zm183.598 3.658a1.072 1.072 0 0 1-.319-.238c-.147-.165-.148-.19-.018-.53.21-.548 1.036-1.902 1.738-2.848.906-1.218 2.096-2.599 4.036-4.681.93-.999 1.847-1.984 2.037-2.19l.345-.373-.002.41c-.002.406-.007.413-.51.785-.714.53-1.677 1.652-2.524 2.943-.399.608-.762 1.15-.808 1.205-.045.054-.082.12-.082.148 0 .056-1.093 2.041-1.862 3.382-.94 1.64-1.511 2.198-2.03 1.987zM18.742 215.516c-1.67-1.57-1.74-1.645-1.147-1.226l1.495 1.052 1.004.704v.353c0 .194-.01.353-.02.352-.012-.001-.611-.557-1.332-1.235zm4.364-3.228c-.566-.533-1.532-1.276-2.339-1.798l-.591-.382v-.71c0-.39.03-.673.068-.63.064.073 2.779 3.253 3.196 3.744.283.333.192.272-.334-.224zm-3.4-2.427c-.505-.324-2.283-1.041-3.627-1.464-3.448-1.086-4.151-1.364-5.144-2.038-.955-.649-1.973-1.87-2.598-3.118l-.221-.443.315.188c2.124 1.266 3.532 1.968 3.951 1.968.312 0 .363-.272.178-.946-.305-1.112-.197-1.48.46-1.568.322-.044 1.357.17 2.13.44.405.142.49.23 1.97 2.076.85 1.06 1.866 2.312 2.26 2.78l.714.854v.722c0 .397-.028.72-.062.72-.033 0-.18-.077-.326-.17zm-4.866-7.837c-.102-.13-.1-.132.03-.03.137.107.18.174.113.174-.017 0-.082-.065-.143-.144zm-.246-.327c-.102-.13-.1-.133.03-.031.137.107.18.174.113.174-.017 0-.081-.064-.143-.143zm-.4-.512c-.142-.18-.24-.328-.218-.328.022 0 .158.147.3.328.143.18.242.327.22.327-.023 0-.159-.147-.301-.327zm-.42-.554c-.102-.13-.099-.132.031-.03.08.061.144.126.144.143 0 .067-.068.024-.175-.113zm-9.052-1.82c-.654-.326-.822-.5-.971-1.001-.177-.595-.166-.944.032-1.007.225-.072.605.108 1.644.776 1.01.65 1.432.854 1.618.782.202-.077.085-.658-.298-1.478l-.344-.738-.86-.403c-1.636-.767-2.953-1.753-3.523-2.637-.45-.698-.596-1.276-.728-2.878-.124-1.512-.255-2.177-.535-2.725a2.485 2.485 0 0 1-.164-.364c0-.023.58-.053 1.29-.067l1.291-.025-1.326-.018-1.326-.018-.183-.267c-.398-.575-.943-1.16-1.579-1.692-.657-.55-2.024-1.504-2.078-1.45-.015.015.048.735.14 1.6.091.865.166 1.625.166 1.69 0 .085-.1.119-.355.119-.309 0-.37-.03-.46-.226a2735.38 2735.38 0 0 1-4.653-10.59c-2.806-6.43-5.571-13.175-7.257-17.698-.72-1.931-1.86-5.123-1.86-5.207 0-.02 1.252-.037 2.78-.037h2.781l.057.185c.181.592 1.237 3.442 1.98 5.346 3.541 9.072 8.186 18.393 13.37 26.834l.831 1.352-.514.037-.514.037.565.045.565.045 1.266 1.966a159.543 159.543 0 0 0 5.979 8.627l.927 1.253-.633-.54c-.348-.297-.899-.671-1.224-.832-.539-.267-.641-.29-1.15-.26-.672.039-1.025.2-2.034.926-1.181.85-1.83.98-2.713.538zm-7.931-10.597a89.986 89.986 0 0 1-.436-1.02c-.028-.072.06-.102.295-.102.281 0 .341.03.374.184.053.249.209 1.81.183 1.836-.011.011-.198-.393-.416-.898zm-24.416-4.872c-.897-2.016-4.228-9.473-7.403-16.57-3.175-7.098-5.79-12.96-5.812-13.028-.034-.11-.03-.11.038 0 .042.067.511.969 1.043 2.002.861 1.674.975 1.858 1.043 1.68.13-.343-.12-1.937-.516-3.301l-.211-.73c-.037-.127.029-.143.606-.143h.648l.723 1.561c.816 1.762 1.375 2.723 1.803 3.1.306.268.59.331.661.146.05-.131-.304-1.125-1.142-3.198-.344-.85-.625-1.56-.625-1.577 0-.017 2.762-.032 6.138-.032h6.139l.043.226c.023.123.064 1.884.091 3.912.027 2.028.087 4.13.132 4.67.105 1.246.407 2.758.738 3.696.59 1.67 1.725 3.532 2.93 4.805l.29.306.173-.41c.263-.622.288-.629.782-.208.24.206.472.374.515.374.05 0 .058.394.024 1.044-.1 1.91.168 4.83.645 7.026.584 2.695 1.615 5.313 2.96 7.522.242.397.44.739.44.758 0 .02-2.535.036-5.633.035h-5.633zm15.6 3.34c0-.18.016-.328.034-.328.044 0 .376.534.376.604 0 .028-.092.052-.205.052-.184 0-.205-.033-.205-.328zm263.34.295c0-.017.058-.054.128-.08.073-.029.106-.015.077.032-.048.078-.204.115-.204.048zm2.54-.07c0-.056.06-.421.13-.811l.13-.709 1.12-.653c.616-.36 1.258-.735 1.427-.836l.307-.182v3.294h-1.556c-1.191 0-1.557-.024-1.557-.103zm3.196-1.569v-1.672l.266-.168c.327-.207.387-.133.449.55.074.814-.362 2.962-.6 2.962-.094 0-.115-.3-.115-1.672zm1.536-1.954c.334-.755.59-1.12.786-1.125.038 0-.07.247-.24.552-.299.537-.855 1.413-.897 1.413-.011 0 .147-.378.351-.84zm-279.625-29.587c0-.157-.022-.344-.05-.415-.042-.11.033-.13.513-.128l.561.002-.286.246c-.158.135-.388.32-.512.413l-.226.168zm-18.626-1.139a55.315 55.315 0 0 0-.676-1.98c-.288-.808-.508-1.487-.487-1.507.094-.094.64.446 1.01 1.001.35.524 1.573 2.818 1.573 2.952 0 .025-.286.046-.635.046h-.635zm2.703.246c-.496-1.176-1.238-2.736-2.21-4.65l-2.141-4.22c-1.183-2.332-1.72-3.512-2.638-5.798-.835-2.08-2.115-5.827-2.05-5.998.122-.315.671-.07 2.02.898 1.731 1.242 2.422 1.445 2.997.877.545-.538.765-1.567.77-3.585l.002-1.398-.477.034c-.74.054-1-.122-2.636-1.787-1.48-1.505-1.748-1.694-2.23-1.578-.454.11-.919.764-1.276 1.797l-.222.643-.003-1.925c-.003-2.444-.124-3.152-.903-5.253-.194-.522-.377-1.085-.408-1.25l-.057-.299 14.492.021 14.491.02.062.738c.678 8.091 2.574 17.767 5.18 26.435l.453 1.503v5.041h-3.9l-.24-.696c-.133-.383-.26-.696-.284-.696-.023 0-.42.314-.88.697l-.84.695h-1.193l-.185-1.336c-.567-4.111-1.99-7.78-3.573-9.209-.6-.542-1.77-1.057-1.77-.78 0 .037.15.562.334 1.168.907 3.005 1.576 6.539 1.764 9.317l.056.84h-12.393zm23.302-2.09.004-2.355.773 2.335c.424 1.285.773 2.345.774 2.356 0 .011-.349.02-.777.02h-.779zm-34.827-32.24c.001-.943.099-1.578.414-2.702.48-1.709.48-1.709.484 1.021l.003 2.438h-.901zm.99-.943c.003-.935.017-1.663.031-1.618.014.045.092.461.172.926.134.772.17.864.422 1.085.33.29.51.304.743.056.373-.397.506-1.482.655-5.338l.06-1.55-1.044-1.973-1.044-1.974-.02-2.458-.019-2.458-.043 2.335-.043 2.336-.422-1.025c-.95-2.305-1.37-4.176-1.584-7.039-.077-1.047-.07-1.17.167-2.58.68-4.07 1.434-7.807 2.254-11.18.245-1.008.446-1.882.446-1.944 0-.143-.259-.28-.528-.28-.21 0-.21-.003-.21-.714 0-.726.382-2.889 2.138-12.11 2.24-11.759 4.159-18.54 6.627-23.423l.699-1.383 1.069-.647c1.162-.704 1.622-.856 1.81-.599.259.353.038 1.63-.581 3.362-.16.448-.29.846-.29.886-.001.109.832-.93 1.252-1.563.882-1.329 1.865-3.533 2.477-5.556.322-1.064 1.058-4.037 1.36-5.49.102-.495.216-.913.253-.928.036-.015.05-.053.03-.084-.018-.031-.007-.185.026-.341.047-.222.074-.096.12.575.108 1.58.384 4.525.633 6.76a189.528 189.528 0 0 0 11.13 46.17l.792 2.09-.06 3.318c-.032 1.826-.025 5.679.017 8.563.1 6.93.097 12.56-.007 13.724-.091 1.027-.23 1.945-.322 2.115-.032.061-.152-.257-.277-.737-.264-1.012-.53-1.573-.763-1.607-.36-.053-.361-.005-.148 3.158l.057.84h-28.041zm-.297-34.692c.025-.106.08-.34.12-.52.073-.315.076-.308.062.157-.01.314-.052.498-.12.52-.075.025-.093-.022-.062-.157zm13.416-49.968c.18-.448 3.291-7.103 3.35-7.165.045-.047.076.296.077.86 0 .516.037 1.582.08 2.368.063 1.117.058 1.443-.022 1.492-.055.034-.794.57-1.64 1.192-2.012 1.477-1.906 1.405-1.845 1.253z" transform="translate(49.715 -25.597)"/></svg>